<svg width="30" height="30" viewBox="0 0 30 30" fill="none" xmlns="http://www.w3.org/2000/svg">
<path d="M15 29.5C18.9194 29.5 22.5328 28.7311 25.1811 26.9259C27.8573 25.1018 29.5 22.2505 29.5 18.2266C29.5 14.2381 27.8888 9.82742 25.2979 6.41162C22.7098 2.99951 19.0784 0.5 15 0.5C10.9216 0.5 7.29023 2.99951 4.70214 6.41162C2.11125 9.82742 0.5 14.2381 0.5 18.2266C0.5 22.2505 2.14274 25.1018 4.8189 26.9259C7.46724 28.7311 11.0806 29.5 15 29.5Z" fill="url(#paint0_linear_9_9603)"/>
<path d="M15 29.5C18.9194 29.5 22.5328 28.7311 25.1811 26.9259C27.8573 25.1018 29.5 22.2505 29.5 18.2266C29.5 14.2381 27.8888 9.82742 25.2979 6.41162C22.7098 2.99951 19.0784 0.5 15 0.5C10.9216 0.5 7.29023 2.99951 4.70214 6.41162C2.11125 9.82742 0.5 14.2381 0.5 18.2266C0.5 22.2505 2.14274 25.1018 4.8189 26.9259C7.46724 28.7311 11.0806 29.5 15 29.5Z" stroke="black"/>
<path d="M15 29.5C18.9194 29.5 22.5328 28.7311 25.1811 26.9259C27.8573 25.1018 29.5 22.2505 29.5 18.2266C29.5 14.2381 27.8888 9.82742 25.2979 6.41162C22.7098 2.99951 19.0784 0.5 15 0.5C10.9216 0.5 7.29023 2.99951 4.70214 6.41162C2.11125 9.82742 0.5 14.2381 0.5 18.2266C0.5 22.2505 2.14274 25.1018 4.8189 26.9259C7.46724 28.7311 11.0806 29.5 15 29.5Z" stroke="url(#paint1_linear_9_9603)"/>
<path d="M12.1182 7.97363C13.169 5.23795 16.831 5.23796 17.8818 7.97364L19.5722 12.3745C19.6799 12.6547 19.8235 12.9179 19.9992 13.1566L22.7571 16.9055C24.4716 19.2359 22.6406 22.5905 19.8753 22.1852L15.4269 21.5332C15.1437 21.4917 14.8563 21.4917 14.5731 21.5332L10.1247 22.1852C7.35945 22.5905 5.5284 19.2359 7.24285 16.9055L10.0008 13.1566C10.1765 12.9179 10.3201 12.6547 10.4278 12.3745L12.1182 7.97363Z" fill="#2D2D2D"/>
<path d="M12.1182 7.97363C13.169 5.23795 16.831 5.23796 17.8818 7.97364L19.5722 12.3745C19.6799 12.6547 19.8235 12.9179 19.9992 13.1566L22.7571 16.9055C24.4716 19.2359 22.6406 22.5905 19.8753 22.1852L15.4269 21.5332C15.1437 21.4917 14.8563 21.4917 14.5731 21.5332L10.1247 22.1852C7.35945 22.5905 5.5284 19.2359 7.24285 16.9055L10.0008 13.1566C10.1765 12.9179 10.3201 12.6547 10.4278 12.3745L12.1182 7.97363Z" fill="url(#paint2_angular_9_9603)"/>
<path d="M12.1182 7.97363C13.169 5.23795 16.831 5.23796 17.8818 7.97364L19.5722 12.3745C19.6799 12.6547 19.8235 12.9179 19.9992 13.1566L22.7571 16.9055C24.4716 19.2359 22.6406 22.5905 19.8753 22.1852L15.4269 21.5332C15.1437 21.4917 14.8563 21.4917 14.5731 21.5332L10.1247 22.1852C7.35945 22.5905 5.5284 19.2359 7.24285 16.9055L10.0008 13.1566C10.1765 12.9179 10.3201 12.6547 10.4278 12.3745L12.1182 7.97363Z" fill="url(#paint3_angular_9_9603)"/>
<defs>
<linearGradient id="paint0_linear_9_9603" x1="15" y1="7.89063" x2="15" y2="29" gradientUnits="userSpaceOnUse">
<stop stop-color="#2F2F2F"/>
<stop offset="1" stop-color="#141414"/>
</linearGradient>
<linearGradient id="paint1_linear_9_9603" x1="2.96986" y1="4.11112" x2="157.334" y2="-73.3692" gradientUnits="userSpaceOnUse">
<stop stop-color="#0EEC73" stop-opacity="0.63"/>
<stop offset="0.598958" stop-color="#0059F7" stop-opacity="0"/>
<stop offset="1" stop-color="#0059F7" stop-opacity="0.63"/>
</linearGradient>
<radialGradient id="paint2_angular_9_9603" cx="0" cy="0" r="1" gradientUnits="userSpaceOnUse" gradientTransform="translate(15 15.1641) rotate(90) scale(9.24219)">
<stop stop-color="#F3EDC8"/>
<stop offset="0.25" stop-color="#E0CE9C"/>
<stop offset="0.484375" stop-color="#C6A562"/>
<stop offset="0.755208" stop-color="#D4BC80"/>
<stop offset="1" stop-color="#F3EDC8"/>
</radialGradient>
<radialGradient id="paint3_angular_9_9603" cx="0" cy="0" r="1" gradientUnits="userSpaceOnUse" gradientTransform="translate(15 15.3828) rotate(90) scale(9.35156)">
<stop stop-color="#4AF497"/>
<stop offset="0.25" stop-color="#0EEC73"/>
<stop offset="0.489583" stop-color="#0DDD6C"/>
<stop offset="0.760417" stop-color="#0EEC73"/>
<stop offset="1" stop-color="#4AF497"/>
</radialGradient>
</defs>
</svg>
