<svg width="146" height="146" viewBox="0 0 146 146" fill="none" xmlns="http://www.w3.org/2000/svg">
<path d="M55.1849 6.91856C65.3314 -2.14778 80.6686 -2.14777 90.8151 6.91856C95.331 10.9537 101.083 13.3362 107.129 13.6762C120.715 14.44 131.56 25.285 132.324 38.8706C132.664 44.917 135.046 50.669 139.081 55.1849C148.148 65.3314 148.148 80.6686 139.081 90.8151C135.046 95.331 132.664 101.083 132.324 107.129C131.56 120.715 120.715 131.56 107.129 132.324C101.083 132.664 95.331 135.046 90.8151 139.081C80.6686 148.148 65.3314 148.148 55.1849 139.081C50.669 135.046 44.917 132.664 38.8706 132.324C25.285 131.56 14.44 120.715 13.6762 107.129C13.3362 101.083 10.9537 95.331 6.91856 90.8151C-2.14778 80.6686 -2.14777 65.3314 6.91856 55.1849C10.9537 50.669 13.3362 44.917 13.6762 38.8706C14.44 25.285 25.285 14.44 38.8706 13.6762C44.917 13.3362 50.669 10.9537 55.1849 6.91856Z" fill="#292929"/>
</svg>
